<svg width="88" height="88" viewBox="0 0 88 88" fill="none" xmlns="http://www.w3.org/2000/svg">
<circle cx="44" cy="44" r="44" fill="#B4C6A6"/>
<path d="M44.5368 35.8116C43.7806 35.3716 42.8806 35.25 42.0347 35.4736C41.1889 35.6972 40.4665 36.2477 40.0265 37.0039C39.5865 37.7601 39.4649 38.6601 39.6885 39.506C39.9121 40.3518 40.4625 41.0742 41.2187 41.5142C41.975 41.9542 42.875 42.0758 43.7208 41.8522C44.5667 41.6286 45.2891 41.0782 45.7291 40.322C46.1691 39.5657 46.2907 38.6657 46.0671 37.8198C45.8435 36.974 45.293 36.2516 44.5368 35.8116ZM41.2195 37.698C41.4754 37.2582 41.8955 36.9381 42.3875 36.808C42.8794 36.678 43.4029 36.7487 43.8427 37.0046C44.2825 37.2605 44.6026 37.6807 44.7327 38.1726C44.8627 38.6645 44.792 39.188 44.5361 39.6278C44.2802 40.0676 43.86 40.3877 43.3681 40.5178C42.8762 40.6478 42.3527 40.5771 41.9129 40.3212C41.4731 40.0653 41.153 39.6452 41.0229 39.1532C40.8929 38.6613 40.9636 38.1378 41.2195 37.698Z" fill="white"/>
<path d="M59.6718 33.9793L60.0065 31.4609C60.0551 31.1246 59.9921 30.7817 59.8272 30.4846C59.7383 30.3206 59.6124 30.1795 59.4594 30.0727C59.3063 29.966 59.1305 29.8964 58.9458 29.8696C57.6755 29.6926 56.479 30.341 55.4806 31.2692C55.192 30.7125 54.8531 30.1834 54.4682 29.6884C54.2171 29.3663 53.8494 29.1559 53.4445 29.1026C53.0396 29.0492 52.63 29.1573 52.3041 29.4033L52.3015 29.405C51.8163 29.7757 51.3646 30.1883 50.9517 30.6381C50.2396 29.4988 49.2689 28.5763 48.0122 28.4088C47.8267 28.3854 47.6382 28.4051 47.4615 28.4661C47.2847 28.5272 47.1244 28.6281 46.9928 28.761C46.7522 28.9962 46.5983 29.3155 46.5458 29.6555L46.0895 33.0389C45.8248 33.1396 45.5734 33.2722 45.3408 33.4337C45.2282 33.5119 45.1238 33.5869 45.031 33.6559C45.0164 33.5739 45.0015 33.487 44.9827 33.393C44.8939 32.9209 44.7075 32.4725 44.4357 32.0764C44.1639 31.6803 43.8125 31.3451 43.4039 31.0924C42.9953 30.8396 42.5386 30.6748 42.0628 30.6084C41.587 30.542 41.1025 30.5755 40.6404 30.7067L40.6366 30.7077C40.1815 30.8394 39.7582 31.063 39.3928 31.3646C39.0274 31.6662 38.7277 32.0395 38.5121 32.4614C38.2966 32.8833 38.1697 33.345 38.1394 33.8178C38.1091 34.2906 38.176 34.7646 38.336 35.2106L38.4617 35.5489C38.335 35.539 38.1947 35.5276 38.0399 35.519C37.8535 35.5078 37.6665 35.5117 37.4807 35.5306L35.13 32.443L35.1214 32.4331C34.9114 32.1632 34.6198 31.9683 34.2901 31.8776C34.11 31.827 33.9208 31.8186 33.7369 31.8528C33.5531 31.887 33.3796 31.9631 33.2298 32.0751C32.2148 32.8451 31.8267 34.1379 31.775 35.4892C31.1538 35.3082 30.5265 35.1731 30.1775 35.0978L30.0493 35.0711C29.7048 34.9936 29.2644 34.9929 28.8809 35.2376C28.4659 35.5008 28.2706 35.9461 28.2439 36.4367L28.2269 36.7239C28.2005 37.1397 28.1678 37.6955 28.1729 38.2575C26.8406 37.9374 25.4716 37.96 24.4469 38.7468C24.2996 38.8613 24.1811 39.0087 24.1009 39.1771C24.0206 39.3455 23.9808 39.5304 23.9846 39.717C23.9841 40.0472 24.102 40.3825 24.3111 40.6543L26.0476 42.9422L25.9357 42.9697L23.4516 43.6163C23.3195 43.6512 23.262 43.7775 23.2969 43.9096C24.0133 46.1309 26.3326 47.4804 28.6167 46.9442C28.3491 47.1846 28.116 47.4673 27.9251 47.7842L26.634 50.0032C26.5715 50.1106 26.6114 50.2616 26.7258 50.3121C28.8402 51.3987 31.4842 50.6695 32.699 48.5817L32.7189 48.4927L44.8603 58.8421C45.2407 59.1666 45.5257 59.5882 45.6851 60.0621C45.8445 60.5359 45.8722 61.0441 45.7653 61.5325L44.7702 66.0971C44.5038 66.8843 45.2825 67.5769 46.1884 67.3375L53.9635 65.2822C54.8694 65.0428 55.2041 64.0558 54.5835 63.5031L51.3316 60.0268C50.9926 59.6643 50.7575 59.2171 50.6512 58.7324C50.5449 58.2476 50.5713 57.7431 50.7275 57.272L55.6034 42.5797C55.7033 42.526 55.8034 42.4693 55.9013 42.4081C57.9835 43.594 60.6192 42.9175 61.9136 40.9399C61.988 40.8395 61.9481 40.6885 61.8407 40.6261L59.6217 39.3349C59.3116 39.1602 58.9779 39.0312 58.631 38.9517L58.6362 38.9372C60.8679 38.2635 62.2042 35.9558 61.7307 33.6793C61.7166 33.619 61.6795 33.5666 61.6273 33.5332C61.5751 33.4999 61.5119 33.4882 61.4513 33.5008L59.6718 33.9793ZM47.9103 29.8601C47.9141 29.8371 47.9207 29.8147 47.93 29.7933C48.6739 29.942 49.4163 30.6311 50.0582 31.8525C50.7106 33.0944 51.1652 34.7227 51.3643 36.3237C51.4287 36.8306 51.7476 37.3611 52.3521 37.4446C52.9579 37.5288 53.4079 37.1039 53.6016 36.6338C54.2167 35.1376 55.0889 33.6825 56.0518 32.6506C56.9913 31.6451 57.8877 31.175 58.6416 31.224C58.6426 31.2397 58.6421 31.2554 58.6399 31.2709L58.0473 35.7201L58.0478 35.722C57.8833 36.9022 57.4062 38.5537 56.9135 39.3784L56.9073 39.3892C55.7261 41.4438 53.8565 42.1349 51.7501 41.8579C51.2572 41.7883 50.7923 41.6679 50.3634 41.4966C50.1529 40.7627 49.7067 40.1186 49.0935 39.6638C48.9748 39.5791 48.8545 39.4968 48.7325 39.417L48.8052 39.3826C49.2323 39.1765 49.6126 38.8849 49.9225 38.5259C50.2324 38.1669 50.4653 37.7481 50.6068 37.2955C50.7483 36.8428 50.7955 36.3659 50.7453 35.8943C50.6951 35.4227 50.5486 34.9665 50.315 34.5537C50.0301 34.0534 49.6242 33.6325 49.1346 33.3294C48.645 33.0264 48.0873 32.851 47.5124 32.8192L47.9103 29.8601ZM38.2264 42.7433C38.0184 43.2243 37.9292 43.7234 37.9447 44.2099C37.588 44.7484 37.1426 45.2225 36.6275 45.6121C34.9331 46.8938 32.9654 47.2181 30.9233 46.0155L30.9114 46.0085C30.076 45.5368 28.8458 44.3356 28.1196 43.3909L28.1184 43.3902L25.4094 39.8178L25.4059 39.8157C25.3965 39.8029 25.3884 39.7891 25.3819 39.7746C26.0119 39.3587 27.0235 39.3245 28.3372 39.7344C29.683 40.155 31.1597 40.9902 32.4351 41.9846C32.8598 42.3196 33.4517 42.3973 33.9058 42.0451C34.3547 41.6963 34.4315 41.1086 34.2279 40.6132C33.6099 39.123 33.2 37.4808 33.1534 36.0788C33.1079 34.6997 33.4135 33.7326 33.9862 33.237C34.0047 33.2518 34.0218 33.2682 34.0375 33.286L36.0934 35.9881C35.0459 36.6083 34.3537 37.7705 34.3999 39.0908C34.4162 39.5647 34.5306 40.03 34.7359 40.4573C34.9412 40.8846 35.233 41.2647 35.5927 41.5735C35.9524 41.8823 36.3723 42.1132 36.8258 42.2514C37.2793 42.3896 37.7565 42.4323 38.2274 42.3766L38.3994 42.3554C38.3468 42.4733 38.2872 42.6031 38.2264 42.7433ZM51.6344 31.9568C52.0741 31.4206 52.577 30.9323 53.1373 30.5045C53.1732 30.4776 53.218 30.4655 53.2625 30.4706C53.3071 30.4757 53.348 30.4977 53.3768 30.5321L53.3785 30.5347C53.8205 31.1033 54.1891 31.7186 54.4791 32.3647C53.7646 33.2633 53.1324 34.3279 52.6272 35.4185C52.4332 34.2296 52.1 33.0677 51.6344 31.9568ZM29.5692 38.7122C29.5264 38.0996 29.5698 37.4047 29.6034 36.8365L29.6215 36.5117C29.6229 36.4759 29.628 36.4404 29.6369 36.4057C29.6759 36.4046 29.715 36.4085 29.753 36.4174L29.8812 36.4441C30.3528 36.5476 31.1795 36.7268 31.8348 36.9564C31.9796 38.1495 32.264 39.3216 32.6822 40.4484C31.7151 39.7514 30.67 39.1696 29.5692 38.7122ZM49.1173 35.2398C49.7072 36.2761 49.2894 37.6172 48.2068 38.1386L47.995 38.239C47.7246 38.369 47.4936 38.4806 47.3381 38.5721C47.202 38.6467 47.0806 38.7455 46.98 38.8636C46.8861 38.9777 46.8264 39.116 46.8078 39.2626C46.7892 39.4092 46.8125 39.5581 46.8749 39.692C46.9516 39.8473 47.0661 39.9809 47.2078 40.0805C47.2963 40.1479 47.4047 40.2142 47.5023 40.2742L47.5696 40.3149C47.7661 40.4356 48.0036 40.5818 48.29 40.7868C49.184 41.4267 49.4573 42.9192 48.6896 43.8187L48.6876 43.8223C48.5026 44.0381 48.2754 44.2137 48.02 44.3383C47.7646 44.4629 47.4863 44.534 47.2024 44.547C46.9185 44.56 46.635 44.5147 46.3692 44.4139C46.1035 44.3132 45.8612 44.159 45.6573 43.9611C45.4714 43.781 45.3398 43.6422 45.2255 43.523C45.1758 43.4706 45.1257 43.4186 45.0752 43.3669C45.0006 43.2886 44.9197 43.2164 44.8335 43.1511L44.8299 43.1491C44.7253 43.0692 44.6022 43.017 44.4721 42.9974C44.342 42.9778 44.209 42.9914 44.0855 43.0369C43.9375 43.0951 43.8115 43.1983 43.7254 43.332C43.6815 43.4009 43.6468 43.4752 43.6223 43.5531C43.59 43.6525 43.5686 43.7662 43.5541 43.8487L43.536 43.9484C43.5054 44.119 43.4693 44.3264 43.4041 44.595C43.1221 45.7548 41.9019 46.4358 40.759 46.0726C40.4852 45.9844 40.2327 45.84 40.0179 45.6486C39.8031 45.4573 39.6306 45.2232 39.5115 44.9613C39.3924 44.6994 39.3293 44.4155 39.3262 44.1279C39.3231 43.8402 39.3802 43.555 39.4936 43.2907C39.5928 43.0616 39.6975 42.835 39.8076 42.611L39.9076 42.4009C39.9628 42.2883 40.0111 42.1724 40.052 42.0538C40.1177 41.8688 40.1252 41.6681 40.0737 41.4787C40.0328 41.3457 39.9582 41.2255 39.8572 41.1298C39.7562 41.0341 39.6322 40.9662 39.4972 40.9325C39.3521 40.8984 39.2026 40.8869 39.054 40.8982C38.8182 40.9152 38.5829 40.9397 38.3486 40.9716L38.0638 41.0055C37.7825 41.0387 37.4975 41.0131 37.2267 40.9303C36.9558 40.8476 36.7051 40.7095 36.4904 40.5248C36.2757 40.3402 36.1017 40.1129 35.9794 39.8575C35.8571 39.6021 35.7891 39.3241 35.7799 39.041C35.7681 38.7535 35.8167 38.4667 35.9224 38.1991C36.0281 37.9314 36.1886 37.6888 36.3936 37.4869C36.5987 37.285 36.8437 37.1281 37.1129 37.0265C37.3821 36.9249 37.6696 36.8807 37.9569 36.8968C38.2379 36.9133 38.4389 36.9329 38.616 36.9497C38.7205 36.9594 38.817 36.9692 38.9168 36.9762C39.0288 36.9839 39.1675 36.9927 39.2982 36.9793C39.5229 36.9631 39.7327 36.861 39.8841 36.6942C39.9618 36.6017 40.0188 36.4937 40.0512 36.3773C40.0837 36.2609 40.0908 36.139 40.0722 36.0196C40.0523 35.8903 40.0191 35.7635 39.9731 35.641C39.9334 35.5312 39.8921 35.4219 39.8492 35.3133L39.8258 35.2519C39.7694 35.1073 39.7059 34.9393 39.6353 34.745C39.5391 34.4765 39.499 34.1912 39.5173 33.9066C39.5356 33.622 39.612 33.3441 39.7418 33.0902C39.8716 32.8362 40.052 32.6116 40.272 32.43C40.4919 32.2485 40.7467 32.114 41.0207 32.0347C41.2982 31.9563 41.5889 31.9365 41.8745 31.9766C42.16 32.0167 42.4341 32.1158 42.6792 32.2676C42.9243 32.4194 43.1352 32.6205 43.2984 32.8583C43.4615 33.096 43.5734 33.3651 43.6268 33.6485C43.6636 33.8487 43.6922 34.0219 43.7186 34.1714L43.7241 34.2113C43.7455 34.3419 43.7673 34.4664 43.7881 34.5679C43.8075 34.6718 43.8393 34.8149 43.899 34.9454C43.9571 35.0734 44.1127 35.3412 44.4584 35.4194C44.6695 35.4635 44.8894 35.429 45.0769 35.3226C45.2412 35.2217 45.3994 35.1111 45.5506 34.9914C45.7053 34.8738 45.886 34.7362 46.1273 34.5684C46.3635 34.4028 46.6317 34.2884 46.9147 34.2323C47.1976 34.1763 47.4892 34.1799 47.7707 34.243C48.0522 34.3061 48.3174 34.4272 48.5494 34.5987C48.7814 34.7701 48.9751 34.9881 49.118 35.2386L49.1173 35.2398Z" fill="white"/>
</svg>
