<svg width="55" height="55" viewBox="0 0 55 55" fill="none" xmlns="http://www.w3.org/2000/svg">
<circle cx="27.5" cy="27.5" r="27.5" fill="#66806A"/>
<path d="M27.7665 34.7414C27.7665 34.7414 29.5045 45.253 27.2121 44.825C24.9197 44.397 27.1852 30.6198 27.1852 30.6198L27.7665 34.7414Z" fill="white"/>
<path d="M27.1339 31.4142L34.9064 33.5603M27.1339 31.4142L36.3196 36.1832M27.1339 31.4142V35.2489M27.1339 31.4142L18.1837 36.1832M27.1339 31.4142L19.5969 33.5603M27.1339 31.4142L13.8264 25.5722M27.1339 31.4142L40.4414 25.5722M27.1339 31.4142L42.0901 19.9687M27.1339 31.4142L31.1379 23.1877M27.1339 31.4142V19.9687M27.1339 31.4142L23.0121 23.1877M27.1339 31.4142L12.0599 19.9687M34.9064 33.5603L36.3196 36.1832M34.9064 33.5603L43.15 25.9299L40.4414 25.5722M36.3196 36.1832L27.1339 35.2489M27.1339 35.2489L18.1837 36.1832M18.1837 36.1832L19.5969 33.5603M19.5969 33.5603L11 25.9299L13.8264 25.5722M13.8264 25.5722L12.0599 19.9687M40.4414 25.5722L42.0901 19.9687M42.0901 19.9687L36.614 21.5782M31.1379 23.1877L35.8485 18.7764L36.614 21.5782M31.1379 23.1877L36.614 21.5782M31.1379 23.1877L32.4333 13.5305L29.4892 14.842L27.1339 9M31.1379 23.1877L27.1339 9M31.1379 23.1877L27.1339 19.9687M27.1339 9V19.9687M27.1339 9L25.1319 14.842M27.1339 19.9687L23.0121 23.1877M23.0121 23.1877L25.1319 14.842M23.0121 23.1877L21.7167 13.5305L25.1319 14.842M23.0121 23.1877L18.3015 18.7764L17.3593 21.2801M23.0121 23.1877L17.3593 21.2801M17.3593 21.2801L12.0599 19.9687" stroke="white" stroke-width="0.5"/>
</svg>
