<svg width="30" height="30" viewBox="0 0 30 30" fill="none" xmlns="http://www.w3.org/2000/svg">
<path fill-rule="evenodd" clip-rule="evenodd" d="M18.1369 6.46967C17.9963 6.32902 17.8055 6.25 17.6066 6.25C17.4077 6.25 17.2169 6.32902 17.0763 6.46967L7.88388 15.6621C7.78965 15.7563 7.72223 15.8739 7.68856 16.0028L6.68856 19.8313C6.62127 20.0889 6.69561 20.3629 6.88388 20.5511C7.07215 20.7394 7.34614 20.8138 7.60375 20.7465L11.4322 19.7465C11.5611 19.7128 11.6787 19.6454 11.773 19.5511L20.9654 10.3588C21.2582 10.0659 21.2582 9.59099 20.9654 9.2981L18.1369 6.46967ZM9.08843 16.5788L17.6066 8.06066L19.3744 9.82843L10.8562 18.3466L8.46344 18.9716L9.08843 16.5788Z" fill="#66806A"/>
<path d="M7 22.25C6.58579 22.25 6.25 22.5858 6.25 23C6.25 23.4142 6.58579 23.75 7 23.75H22C22.4142 23.75 22.75 23.4142 22.75 23C22.75 22.5858 22.4142 22.25 22 22.25H7Z" fill="#66806A"/>
<rect x="0.5" y="0.5" width="29" height="29" rx="9.5" stroke="#66806A"/>
</svg>
