<svg width="88" height="88" viewBox="0 0 88 88" fill="none" xmlns="http://www.w3.org/2000/svg">
<circle cx="44" cy="44" r="44" fill="#FFC286"/>
<path d="M59 32.3391H52.6842V30.6696H59V32.3391Z" fill="white"/>
<path d="M31.2697 38.6H53.9671L56.2368 59H29L31.2697 38.6ZM35.8092 47H38.0789V42.2H35.8092V47ZM47.1579 47H49.4276V42.2H47.1579V47ZM38.0789 36.2H35.8092C35.8092 34.2904 36.5266 32.4591 37.8036 31.1088C39.0806 29.7586 40.8125 29 42.6184 29C44.4243 29 46.1563 29.7586 47.4333 31.1088C48.7102 32.4591 49.4276 34.2904 49.4276 36.2H47.1579C47.1579 34.927 46.6796 33.7061 45.8283 32.8059C44.977 31.9057 43.8224 31.4 42.6184 31.4C41.4145 31.4 40.2598 31.9057 39.4085 32.8059C38.5572 33.7061 38.0789 34.927 38.0789 36.2Z" fill="white"/>
</svg>
