<svg width="88" height="88" viewBox="0 0 88 88" fill="none" xmlns="http://www.w3.org/2000/svg">
<circle cx="44" cy="44" r="44" fill="#B4C6A6"/>
<path d="M32.2207 40.3217H54.4276L56.6483 59H30L32.2207 40.3217ZM36.6621 48.0127H38.8828V43.6178H36.6621V48.0127ZM47.7655 48.0127H49.9862V43.6178H47.7655V48.0127ZM38.8828 38.1242H36.6621C36.6621 36.3758 37.364 34.699 38.6133 33.4627C39.8627 32.2264 41.5572 31.5318 43.3241 31.5318C45.091 31.5318 46.7856 32.2264 48.0349 33.4627C49.2843 34.699 49.9862 36.3758 49.9862 38.1242H47.7655C47.7655 36.9586 47.2976 35.8407 46.4647 35.0165C45.6317 34.1923 44.5021 33.7293 43.3241 33.7293C42.1462 33.7293 41.0165 34.1923 40.1836 35.0165C39.3507 35.8407 38.8828 36.9586 38.8828 38.1242Z" fill="white"/>
<path d="M58 32.4941H55.3517V35.1146H54.469V32.4941H51.8207V31.6206H54.469V29H55.3517V31.6206H58V32.4941Z" fill="white"/>
</svg>
