<svg width="31" height="30" viewBox="0 0 31 30" fill="none" xmlns="http://www.w3.org/2000/svg">
<path d="M17.745 5.17014C16.517 3.90187 14.4829 3.90186 13.2549 5.17013L7.25682 11.3648C6.91234 11.7206 6.68086 12.1703 6.59154 12.6574C5.86309 16.6299 5.80932 20.6967 6.43249 24.687L6.65311 26.0998C6.7228 26.546 7.10713 26.875 7.55876 26.875H11.75C12.0951 26.875 12.375 26.5952 12.375 26.25V17.5H18.625V26.25C18.625 26.5952 18.9048 26.875 19.25 26.875H23.4411C23.8927 26.875 24.2771 26.546 24.3468 26.0998L24.5674 24.687C25.1905 20.6967 25.1368 16.6299 24.4083 12.6574C24.319 12.1703 24.0875 11.7206 23.7431 11.3648L17.745 5.17014Z" fill="#C4C0C0"/>
</svg>
