<svg width="88" height="88" viewBox="0 0 88 88" fill="none" xmlns="http://www.w3.org/2000/svg">
<circle cx="44" cy="44" r="44" fill="#FFF1AF"/>
<path d="M44.3126 64.2338C42.6953 56.0058 40.0775 48.0066 36.5175 40.4144" stroke="black" stroke-width="2" stroke-linecap="round" stroke-linejoin="round"/>
<path d="M43.2693 39.7263C43.2693 39.7263 46.112 54.444 41.9068 62.2398" stroke="black" stroke-width="2" stroke-linecap="round" stroke-linejoin="round"/>
<path d="M50.7942 39.7263C50.7942 39.7263 47.1634 55.3383 40.8676 63.7254" stroke="black" stroke-width="2" stroke-linecap="round" stroke-linejoin="round"/>
<path d="M40.7621 56.3992C40.7621 56.3992 38.664 58.4069 44.791 59.1535C49.1629 59.6863 47.9005 57.2438 47.9005 57.2438" stroke="black" stroke-width="2.105" stroke-linecap="round" stroke-linejoin="round"/>
<path d="M42.6044 63.6009C42.3689 63.6007 42.1375 63.5393 41.9328 63.4229C41.7281 63.3064 41.5571 63.1389 41.4365 62.9366C41.3159 62.7343 41.2499 62.5041 41.2449 62.2687C41.2399 62.0332 41.2961 61.8005 41.408 61.5932C45.8309 53.8213 42.2029 37.7207 42.1756 37.5785C42.1072 37.224 42.1824 36.8568 42.3847 36.5578C42.587 36.2588 42.8998 36.0523 43.2543 35.9839C43.6088 35.9155 43.976 35.9907 44.275 36.193C44.574 36.3953 44.7805 36.7081 44.8489 37.0626C44.9686 37.6826 48.1897 54.7564 43.8042 62.8856C43.6875 63.1021 43.5143 63.283 43.3031 63.4089C43.0918 63.5348 42.8503 63.6012 42.6044 63.6009Z" fill="#5C9E31"/>
<path d="M41.685 65.0913C41.8327 65.1819 42.0091 65.2135 42.179 65.1797C42.349 65.1459 42.4999 65.0492 42.6017 64.9089C48.8104 56.1774 53.3463 38.0372 53.4946 37.4009C53.5351 37.2267 53.5409 37.0463 53.5117 36.8699C53.4824 36.6936 53.4187 36.5247 53.3242 36.3729C53.2297 36.2211 53.1063 36.0895 52.9609 35.9854C52.8155 35.8814 52.651 35.807 52.4769 35.7665C52.1252 35.6847 51.7554 35.746 51.4489 35.9369C51.2971 36.0314 51.1655 36.1549 51.0614 36.3003C50.9574 36.4457 50.883 36.6101 50.8425 36.7843C50.8085 36.934 46.8572 54.9048 40.3143 63.3123C40.2571 63.389 40.2166 63.4769 40.1957 63.5703C40.1747 63.6637 40.1737 63.7604 40.1928 63.8542C40.2118 63.948 40.2504 64.0367 40.306 64.1146C40.3617 64.1924 40.4332 64.2576 40.5158 64.3059L41.685 65.0913Z" fill="#B1CC33"/>
<path d="M45.6757 64.649C45.7607 64.6323 45.8415 64.5988 45.9133 64.5504C45.9851 64.502 46.0465 64.4398 46.0939 64.3672C46.1412 64.2947 46.1735 64.2134 46.1889 64.1282C46.2043 64.043 46.2024 63.9556 46.1834 63.8711C45.5063 60.8664 42.3866 48.0706 37.0504 36.5726C36.9666 36.393 36.8448 36.2337 36.6933 36.106C36.5417 35.9782 36.3642 35.8849 36.173 35.8327C35.9818 35.7805 35.7815 35.7706 35.5861 35.8037C35.3907 35.8367 35.2048 35.9119 35.0414 36.0241C34.7757 36.2204 34.5871 36.5035 34.5081 36.8243C34.4292 37.1451 34.465 37.4834 34.6092 37.7806C36.887 42.7466 38.3033 45.4151 40.1782 50.7425C42.1028 56.2107 43.0529 61.7695 43.6722 64.4162C43.7113 64.5808 43.8131 64.7237 43.956 64.8145C44.0988 64.9052 44.2715 64.9367 44.4371 64.9021L45.6757 64.649Z" fill="#B1CC33"/>
<path d="M47.4588 37.4587C47.4588 37.4587 51.5673 40.1245 54.3869 36.5059C57.2064 32.8874 52.3547 27.6505 52.3547 27.6505C52.3547 27.6505 49.2276 24.4778 47.4139 26.1921C47.4139 26.1921 51.1147 32.4927 49.4099 35.204C47.7065 37.9147 47.4588 37.4587 47.4588 37.4587Z" fill="#B399C8"/>
<path d="M53.0428 37.3818C53.4353 37.7015 53.8908 37.9347 54.3797 38.0662C54.8685 38.1978 55.3796 38.2247 55.8796 38.1451C56.3795 38.0656 56.857 37.8815 57.2809 37.6048C57.7048 37.328 58.0656 36.965 58.3395 36.5393C60.7745 33.3679 58.5641 29.0579 58.5641 29.0579C58.5641 29.0579 57.3867 26.1683 55.6527 25.7307C53.9186 25.2931 52.1199 28.3535 52.1199 28.3535C52.1199 28.3535 56.5816 33.3168 53.0428 37.3818Z" fill="#B399C8"/>
<path d="M52.4935 27.7894C52.4935 27.7894 50.7615 26.0056 49.0908 25.7157C49.362 24.5979 49.971 23.5908 50.835 22.8315C51.0822 22.7316 51.3502 22.6938 51.6154 22.7216C51.8806 22.7494 52.1349 22.8418 52.3561 22.9908C52.9851 23.4971 53.5392 24.0901 54.0017 24.7521L54.5148 25.845C53.6995 26.3278 53.0076 26.9934 52.4935 27.7894Z" fill="#8967AA"/>
<path d="M37.5901 35.204C35.8853 32.492 39.5861 26.1914 39.5861 26.1914C37.7724 24.4771 34.6453 27.6499 34.6453 27.6499C34.6453 27.6499 29.7943 32.8861 32.6132 36.5052C35.432 40.1244 39.5412 37.458 39.5412 37.458C39.5412 37.458 39.2942 37.914 37.5901 35.204Z" fill="#FFA7C0"/>
<path d="M34.8801 28.3535C34.8801 28.3535 33.0814 25.2931 31.3473 25.7307C29.6133 26.1683 28.4359 29.0572 28.4359 29.0572C28.4359 29.0572 26.2255 33.3679 28.6605 36.5393C28.9344 36.965 29.2951 37.3281 29.7189 37.6049C30.1428 37.8817 30.6203 38.0659 31.1203 38.1455C31.6202 38.2251 32.1313 38.1983 32.6202 38.0668C33.1091 37.9353 33.5647 37.7021 33.9573 37.3825C30.4184 33.3175 34.8801 28.3535 34.8801 28.3535Z" fill="#FFA7C0"/>
<path d="M32.4852 25.845L32.9983 24.7521C33.4608 24.0901 34.0149 23.4971 34.6439 22.9908C34.8651 22.8418 35.1194 22.7494 35.3846 22.7216C35.6498 22.6938 35.9178 22.7316 36.165 22.8315C37.029 23.5908 37.638 24.5979 37.9092 25.7157C36.2385 26.0056 34.5065 27.7894 34.5065 27.7894C33.9924 26.9934 33.3005 26.3278 32.4852 25.845Z" fill="#E67A94"/>
<path d="M43.419 27.9908C42.3015 29.0239 40.9105 31.7625 40.8533 32.8445C40.7546 34.6936 40.8166 35.1128 41.8701 36.8809C41.9919 37.0851 42.1151 37.066 42.4907 37.36C43.0025 37.7616 40.5716 38.2325 40.5716 38.2325C39.0247 38.3414 38.0277 36.6652 37.456 35.2088C36.084 31.7155 39.1683 25.7355 40.7152 25.6266C40.7152 25.6266 41.5563 25.7287 43.6559 27.7206L43.419 27.9908Z" fill="#F4AA41"/>
<path d="M46.6285 27.151C47.9787 27.5553 50.3328 33.0079 48.4252 35.8009C48.1453 36.2274 47.7718 36.5844 47.3331 36.8447C46.8943 37.105 46.402 37.2617 45.8935 37.3029C45.2746 37.3845 44.6457 37.3438 44.0424 37.1831C42.6609 36.8972 41.7353 35.4701 41.5883 34.0682C41.2365 30.7035 45.2477 26.8652 46.6285 27.151Z" fill="#F4AA41"/>
<path d="M42.1049 25.666C42.8378 24.49 43.858 23.6291 44.3997 23.6911L42.1049 25.666Z" fill="#E27022"/>
<path d="M43.436 28.3917C43.436 28.3917 41.2719 26.5528 41.1317 26.4929C40.9615 26.4201 41.5883 24.2062 43.6593 22.9513C45.7302 21.6964 47.1872 26.4793 47.1872 26.4793L46.163 26.6256C45.9976 26.6487 45.8395 26.7085 45.7002 26.8005C45.0728 27.2157 43.436 28.3917 43.436 28.3917Z" fill="#E27022"/>
<path d="M44.3126 64.2338C42.6953 56.0058 40.0775 48.0066 36.5175 40.4144" stroke="black" stroke-width="2" stroke-linecap="round" stroke-linejoin="round"/>
<path d="M43.2693 39.7263C43.2693 39.7263 46.112 54.444 41.9068 62.2398" stroke="black" stroke-width="2" stroke-linecap="round" stroke-linejoin="round"/>
<path d="M50.7942 39.7263C50.7942 39.7263 47.1634 55.3383 40.8676 63.7254" stroke="black" stroke-width="2" stroke-linecap="round" stroke-linejoin="round"/>
<path d="M40.7621 56.3992C40.7621 56.3992 38.664 58.4069 44.791 59.1535C49.1629 59.6863 47.9005 57.2438 47.9005 57.2438" stroke="#FCEA2B" stroke-width="2.105" stroke-linecap="round" stroke-linejoin="round"/>
<path d="M46.6693 26.6018C48.1427 27.0421 50.7098 32.9881 48.6287 36.0343C48.3235 36.4995 47.9161 36.8888 47.4376 37.1727C46.9591 37.4566 46.4222 37.6275 45.8677 37.6724C45.1925 37.7613 44.5064 37.7166 43.8484 37.5411C42.3431 37.2294 41.3331 35.6736 41.1732 34.1451C40.7887 30.4755 45.164 26.2894 46.6693 26.6011M42.4166 25.0719C43.0536 24.0484 43.9417 23.2991 44.4133 23.3535C44.7862 23.4297 45.3327 24.0953 45.7397 24.9698M40.349 37.5724C38.8144 37.6758 37.7616 36.4365 37.1981 35.0067C35.8437 31.5746 38.9369 26.3691 40.4715 26.2656" stroke="black" stroke-width="2" stroke-linecap="round" stroke-linejoin="round"/>
<path d="M40.3511 26.2568C40.9397 26.366 41.4739 26.6714 41.8667 27.1231M50.3144 37.7098C50.8663 37.7391 51.4195 37.6822 51.9539 37.5411C53.4592 37.23 54.4699 35.6736 54.6298 34.1451C54.9537 31.0417 51.8756 27.5696 50.0068 26.7604M53.3857 25.0719C52.7487 24.0484 51.8613 23.2991 51.3897 23.3535C51.0161 23.4297 50.4696 24.0953 50.0626 24.9698M55.454 37.5724C56.9879 37.6758 58.0401 36.4365 58.6049 35.0067C59.9579 31.5746 56.8654 26.3691 55.3315 26.2656" stroke="black" stroke-width="2" stroke-linecap="round" stroke-linejoin="round"/>
<path d="M55.4519 26.2568C54.8631 26.3658 54.3286 26.6712 53.9356 27.1231M36.9932 26.7604C35.1244 27.5702 32.0456 31.0417 32.3709 34.1444C32.5308 35.6736 33.5414 37.2294 35.0461 37.5411C35.5805 37.6822 36.1337 37.7391 36.6856 37.7098M33.6136 25.0719C34.2512 24.0484 35.1394 23.2991 35.6103 23.3535C35.9839 23.4297 36.5304 24.0946 36.9374 24.9698M31.6685 26.2656C30.1346 26.3691 27.0421 31.5739 28.3951 35.006C28.9599 36.4365 30.0121 37.6758 31.546 37.5724" stroke="black" stroke-width="2" stroke-linecap="round" stroke-linejoin="round"/>
<path d="M33.0644 27.1231C32.6716 26.6714 32.1373 26.366 31.5488 26.2568" stroke="black" stroke-width="2" stroke-linecap="round" stroke-linejoin="round"/>
</svg>
