<svg width="88" height="88" viewBox="0 0 88 88" fill="none" xmlns="http://www.w3.org/2000/svg">
<circle cx="44" cy="44" r="44" fill="#B4C6A6"/>
<path d="M56.5 39.8333H31.5C30.3949 39.8333 29.3351 40.2723 28.5537 41.0537C27.7723 41.8351 27.3333 42.8949 27.3333 44V53.5833C27.3333 56.3448 29.5719 58.5833 32.3333 58.5833H55.6667C58.4281 58.5833 60.6667 56.3448 60.6667 53.5833V44C60.6667 42.8949 60.2277 41.8351 59.4463 41.0537C58.6649 40.2723 57.6051 39.8333 56.5 39.8333ZM56.5 48.1667H50.25C49.0994 48.1667 48.1667 47.2339 48.1667 46.0833C48.1667 44.9327 49.0994 44 50.25 44H56.5M54.4167 32.75C54.4167 35.5114 52.1781 37.75 49.4167 37.75H38.5833C35.8219 37.75 33.5833 35.5114 33.5833 32.75V32.3333C33.5833 29.5719 35.8219 27.3333 38.5833 27.3333H49.4167C52.1781 27.3333 54.4167 29.5719 54.4167 32.3333V32.75Z" fill="white"/>
</svg>
