<svg width="100" height="100" viewBox="0 0 100 100" fill="none" xmlns="http://www.w3.org/2000/svg">
<circle cx="50" cy="50" r="50" fill="white"/>
<path d="M51.4205 61.5334C51.4205 61.5334 54.0556 77.2686 50.58 76.628C47.1044 75.9873 50.5392 55.3636 50.5392 55.3636L51.4205 61.5334Z" fill="#66806A"/>
<path d="M50.4613 56.5528L62.2456 59.7653M50.4613 56.5528L64.3882 63.6916M50.4613 56.5528V62.2931M50.4613 56.5528L36.8915 63.6916M50.4613 56.5528L39.0341 59.7653M50.4613 56.5528L30.2852 47.8076M50.4613 56.5528L70.6374 47.8076M50.4613 56.5528L73.1371 39.4194M50.4613 56.5528L56.532 44.2382M50.4613 56.5528V39.4194M50.4613 56.5528L44.2121 44.2382M50.4613 56.5528L27.6069 39.4194M62.2456 59.7653L64.3882 63.6916M62.2456 59.7653L74.7441 48.343L70.6374 47.8076M64.3882 63.6916L50.4613 62.2931M50.4613 62.2931L36.8915 63.6916M36.8915 63.6916L39.0341 59.7653M39.0341 59.7653L26 48.343L30.2852 47.8076M30.2852 47.8076L27.6069 39.4194M70.6374 47.8076L73.1371 39.4194M73.1371 39.4194L64.8346 41.8288M56.532 44.2382L63.674 37.6347L64.8346 41.8288M56.532 44.2382L64.8346 41.8288M56.532 44.2382L58.496 29.7819L54.0323 31.7451L50.4613 23M56.532 44.2382L50.4613 23M56.532 44.2382L50.4613 39.4194M50.4613 23V39.4194M50.4613 23L47.426 31.7451M50.4613 39.4194L44.2121 44.2382M44.2121 44.2382L47.426 31.7451M44.2121 44.2382L42.248 29.7819L47.426 31.7451M44.2121 44.2382L37.0701 37.6347L35.6417 41.3826M44.2121 44.2382L35.6417 41.3826M35.6417 41.3826L27.6069 39.4194" stroke="#66806A"/>
</svg>
