<svg width="502" height="516" viewBox="0 0 502 516" fill="none" xmlns="http://www.w3.org/2000/svg">
<defs>
<linearGradient id="paint0_linear_101_91" x1="143.553" y1="94.5" x2="251.053" y2="501" gradientUnits="userSpaceOnUse">
<stop stop-color="#FFD358"/>
<stop offset="0.490853" stop-color="#FFCB3A" stop-opacity="0.9"/>
<stop offset="1" stop-color="#F5B400"/>
</linearGradient>
</defs>
<path d="M96.2594 332.633L141 357C160.5 395.5 171.906 422.363 180.5 420L116.241 515.407L91.8437 451.676L19.3333 456.602L96.2594 332.633Z" fill="#200866"/>
<path d="M414.601 330.875L357 360C333.967 400.037 329 414 325 417L397.228 510.328L419.471 446.281L491.119 453.353L414.601 330.875Z" fill="#200866"/>
<path d="M310.418 80.986C319.815 78.1282 329.896 82.516 334.207 91.3402L357.523 139.056C359.37 142.838 362.364 145.94 366.077 147.921L412.932 172.922C421.597 177.546 425.622 187.777 422.431 197.065L405.177 247.292C403.81 251.272 403.733 255.582 404.958 259.609L420.411 310.419C423.268 319.815 418.881 329.896 410.056 334.208L362.34 357.523C358.559 359.37 355.457 362.364 353.476 366.077L328.474 412.932C323.851 421.597 313.62 425.622 304.332 422.432L254.105 405.178C250.125 403.81 245.814 403.733 241.788 404.958L190.978 420.411C181.582 423.268 171.501 418.881 167.189 410.056L143.874 362.341C142.026 358.559 139.033 355.457 135.32 353.476L88.4648 328.475C79.7999 323.851 75.7742 313.62 78.9651 304.332L96.219 254.105C97.5864 250.125 97.6632 245.814 96.4386 241.788L80.9858 190.978C78.1281 181.582 82.5159 171.501 91.3401 167.189L139.056 143.874C142.837 142.026 145.94 139.033 147.921 135.32L172.922 88.465C177.546 79.8 187.776 75.7744 197.065 78.9652L247.292 96.2192C251.272 97.5865 255.582 97.6633 259.609 96.4387L310.418 80.986Z" fill="url(#paint0_linear_101_91)"/>
<path d="M245.18 191.809C247.387 187.37 253.72 187.37 255.926 191.809L269.872 219.866C270.749 221.631 272.437 222.852 274.388 223.134L305.5 227.623C310.435 228.335 312.399 234.405 308.816 237.873L286.358 259.609C284.931 260.99 284.28 262.986 284.618 264.942L289.927 295.677C290.773 300.573 285.643 304.317 281.238 302.018L253.33 287.449C251.59 286.541 249.516 286.541 247.777 287.449L219.868 302.018C215.464 304.317 210.334 300.573 211.179 295.677L216.488 264.942C216.826 262.986 216.175 260.99 214.749 259.609L192.29 237.873C188.708 234.405 190.671 228.335 195.606 227.623L226.719 223.134C228.669 222.852 230.357 221.631 231.235 219.866L245.18 191.809Z" fill="#FFFEFA"/>
<circle cx="250.434" cy="250.381" r="102.881" stroke="#FEB804" stroke-width="13"/>
</svg>
