<svg width="502" height="516" viewBox="0 0 502 516" fill="none" xmlns="http://www.w3.org/2000/svg">
<defs>
<linearGradient id="paint0_linear_101_92" x1="143.95" y1="94.5" x2="251.45" y2="501" gradientUnits="userSpaceOnUse">
<stop stop-color="#B2B2B2"/>
<stop offset="0.490853" stop-color="#A0A0A0" stop-opacity="0.9"/>
<stop offset="1" stop-color="#989898"/>
</linearGradient>
</defs>
<path d="M96.6561 332.633L141.397 357C160.897 395.5 172.302 422.363 180.897 420L116.638 515.407L92.2404 451.676L19.73 456.602L96.6561 332.633Z" fill="#200866"/>
<path d="M414.998 330.875L357.397 360C334.364 400.037 329.397 414 325.397 417L397.625 510.328L419.867 446.281L491.516 453.353L414.998 330.875Z" fill="#200866"/>
<path d="M310.815 80.986C320.212 78.1282 330.293 82.516 334.604 91.3402L357.92 139.056C359.767 142.838 362.761 145.94 366.474 147.921L413.329 172.922C421.994 177.546 426.019 187.777 422.828 197.065L405.574 247.292C404.207 251.272 404.13 255.582 405.355 259.609L420.808 310.419C423.665 319.815 419.278 329.896 410.453 334.208L362.737 357.523C358.956 359.37 355.854 362.364 353.873 366.077L328.871 412.932C324.248 421.597 314.017 425.622 304.728 422.432L254.502 405.178C250.521 403.81 246.211 403.733 242.185 404.958L191.375 420.411C181.979 423.268 171.898 418.881 167.586 410.056L144.271 362.341C142.423 358.559 139.43 355.457 135.716 353.476L88.8618 328.475C80.1969 323.851 76.1712 313.62 79.362 304.332L96.616 254.105C97.9833 250.125 98.0602 245.814 96.8356 241.788L81.3828 190.978C78.5251 181.582 82.9128 171.501 91.7371 167.189L139.453 143.874C143.234 142.026 146.337 139.033 148.318 135.32L173.319 88.465C177.943 79.8 188.173 75.7744 197.462 78.9652L247.689 96.2192C251.669 97.5865 255.979 97.6633 260.006 96.4387L310.815 80.986Z" fill="url(#paint0_linear_101_92)"/>
<path d="M245.577 191.809C247.784 187.37 254.117 187.37 256.323 191.809L270.269 219.866C271.146 221.631 272.834 222.852 274.785 223.134L305.897 227.623C310.832 228.335 312.796 234.405 309.213 237.873L286.755 259.609C285.328 260.99 284.677 262.986 285.015 264.942L290.324 295.677C291.17 300.573 286.039 304.317 281.635 302.018L253.727 287.449C251.987 286.541 249.913 286.541 248.174 287.449L220.265 302.018C215.861 304.317 210.731 300.573 211.576 295.677L216.885 264.942C217.223 262.986 216.572 260.99 215.146 259.609L192.687 237.873C189.104 234.405 191.068 228.335 196.003 227.623L227.116 223.134C229.066 222.852 230.754 221.631 231.632 219.866L245.577 191.809Z" fill="#FFFEFA"/>
<circle cx="250.831" cy="250.381" r="102.881" stroke="#979595" stroke-width="13"/>
</svg>
