<svg width="503" height="516" viewBox="0 0 503 516" fill="none" xmlns="http://www.w3.org/2000/svg">
<defs>
<linearGradient id="paint0_linear_101_97" x1="144.347" y1="94.5" x2="251.847" y2="501" gradientUnits="userSpaceOnUse">
<stop stop-color="#EC823A"/>
<stop offset="0.490853" stop-color="#EA7424" stop-opacity="0.9"/>
<stop offset="1" stop-color="#DC5D06"/>
</linearGradient>
</defs>
<path d="M97.0528 332.633L141.793 357C161.293 395.5 172.699 422.363 181.293 420L117.034 515.407L92.6371 451.676L20.1267 456.602L97.0528 332.633Z" fill="#200866"/>
<path d="M415.395 330.875L357.793 360C334.76 400.037 329.793 414 325.793 417L398.021 510.328L420.264 446.281L491.912 453.353L415.395 330.875Z" fill="#200866"/>
<path d="M311.212 80.986C320.608 78.1282 330.689 82.516 335.001 91.3402L358.316 139.056C360.164 142.838 363.157 145.94 366.871 147.921L413.725 172.922C422.39 177.546 426.416 187.777 423.225 197.065L405.971 247.292C404.604 251.272 404.527 255.582 405.751 259.609L421.204 310.419C424.062 319.815 419.674 329.896 410.85 334.208L363.134 357.523C359.353 359.37 356.25 362.364 354.269 366.077L329.268 412.932C324.644 421.597 314.414 425.622 305.125 422.432L254.898 405.178C250.918 403.81 246.608 403.733 242.581 404.958L191.772 420.411C182.375 423.268 172.294 418.881 167.983 410.056L144.667 362.341C142.82 358.559 139.826 355.457 136.113 353.476L89.2584 328.475C80.5935 323.851 76.5678 313.62 79.7586 304.332L97.0126 254.105C98.38 250.125 98.4568 245.814 97.2322 241.788L81.7794 190.978C78.9217 181.582 83.3094 171.501 92.1337 167.189L139.85 143.874C143.631 142.026 146.733 139.033 148.715 135.32L173.716 88.465C178.339 79.8 188.57 75.7744 197.859 78.9652L248.085 96.2192C252.066 97.5865 256.376 97.6633 260.402 96.4387L311.212 80.986Z" fill="url(#paint0_linear_101_97)"/>
<path d="M245.974 191.809C248.18 187.37 254.513 187.37 256.72 191.809L270.665 219.866C271.543 221.631 273.231 222.852 275.181 223.134L306.294 227.623C311.229 228.335 313.193 234.405 309.61 237.873L287.151 259.609C285.725 260.99 285.074 262.986 285.412 264.942L290.721 295.677C291.566 300.573 286.436 304.317 282.032 302.018L254.123 287.449C252.384 286.541 250.31 286.541 248.57 287.449L220.662 302.018C216.258 304.317 211.127 300.573 211.973 295.677L217.282 264.942C217.62 262.986 216.969 260.99 215.542 259.609L193.084 237.873C189.501 234.405 191.465 228.335 196.4 227.623L227.512 223.134C229.463 222.852 231.151 221.631 232.028 219.866L245.974 191.809Z" fill="#FFFEFA"/>
<circle cx="251.228" cy="250.381" r="102.881" stroke="#DC6311" stroke-width="13"/>
</svg>
